<?xml version="1.0" encoding="utf-8"?>
<!-- Generator: Adobe Illustrator 26.3.1, SVG Export Plug-In . SVG Version: 6.00 Build 0)  -->
<svg version="1.1" id="Livello_1" xmlns="http://www.w3.org/2000/svg" xmlns:xlink="http://www.w3.org/1999/xlink" x="0px" y="0px"
	 viewBox="0 0 595.28 841.89" style="enable-background:new 0 0 595.28 841.89;" xml:space="preserve">
<style type="text/css">
	.st0{fill:#010202;}
</style>
<g>
	<g>
		<path class="st0" d="M574.88,644.75H17.53V87.4h557.35V644.75z M24.06,638.23h544.3V93.93H24.06V638.23z"/>
	</g>
	<g>
		<g>
			<polygon class="st0" points="296.2,171.24 217.47,256.35 20.79,256.35 20.79,250.48 214.7,250.48 296.21,162.51 377.66,250.48 
				571.62,250.48 571.62,256.35 374.89,256.35 			"/>
		</g>
		<g>
			<polygon class="st0" points="371.94,328.62 372.13,413.72 571.62,413.72 571.62,407.85 377.66,407.85 377.67,322.75 
				214.71,322.75 214.71,407.85 20.79,407.85 20.79,413.72 220.24,413.72 220.24,328.62 			"/>
		</g>
		<g>
			<g>
				<polyline class="st0" points="214.71,566.24 20.79,566.24 20.79,572.11 220.25,572.11 				"/>
			</g>
			<g>
				<polyline class="st0" points="372.13,566.24 571.62,566.24 571.62,572.11 372.13,572.11 				"/>
			</g>
			<g>
				<path class="st0" d="M377.66,566.24c0-46.89-36.45-85.11-81.45-85.11s-81.48,38.01-81.48,84.9l0,0.2l5.46,5.55
					c0-43.75,34.04-84.77,76.03-84.77s75.92,35.47,75.92,79.22H377.66z"/>
			</g>
		</g>
	</g>
</g>
</svg>
